<svg width="29" height="30" viewBox="0 0 29 30" fill="none" xmlns="http://www.w3.org/2000/svg">
<path d="M18.8662 0.354492C19.0924 -0.0931694 19.7599 0.0108426 19.8398 0.505859L20.96 7.48633C21.0015 7.74533 21.2922 7.87995 21.5166 7.74414L28.2129 3.68457C28.633 3.42991 29.1382 3.84967 28.9658 4.30957L24.9316 15.0576C24.8666 15.2308 24.9398 15.426 25.1025 15.5137L28.0957 17.1182C28.5464 17.3598 28.4111 18.0385 27.9023 18.0889L24.7803 18.3975C24.5153 18.4238 24.3642 18.7139 24.4941 18.9463L27.1396 23.6631C27.3459 24.0307 27.0498 24.4774 26.6309 24.4307L19.4297 23.627C19.3143 23.6142 19.1987 23.6567 19.1191 23.7412L14.0078 29.1826C13.7512 29.4554 13.2984 29.3736 13.1533 29.0283L10.3262 22.3018C10.2641 22.1546 10.1143 22.0631 9.95508 22.0762L6.38965 22.3691C5.93036 22.4065 5.65419 21.8701 5.95215 21.5186L8.00293 19.1016C8.15668 18.9199 8.10152 18.6418 7.88965 18.5332L0.28125 14.6396C-0.163676 14.4112 -0.0575712 13.7457 0.436523 13.667L7.71484 12.5117C7.98322 12.4691 8.11564 12.1614 7.96191 11.9375L0.835938 1.58691C0.527945 1.13854 1.03181 0.57912 1.50977 0.838867L13.0205 7.1084C13.2323 7.22353 13.4962 7.10869 13.5557 6.875L13.7783 5.99512C13.8854 5.57477 14.4317 5.46472 14.6934 5.81055L15.1865 6.46387C15.3515 6.68226 15.6882 6.65158 15.8115 6.40723L18.8662 0.354492ZM13.0039 14.2129C12.5957 14.2131 12.2531 14.5537 12.3867 14.9395C12.4956 15.2537 12.6754 15.5426 12.915 15.7822C13.331 16.198 13.8952 16.4316 14.4834 16.4316C15.0716 16.4316 15.6358 16.1981 16.0518 15.7822C16.2913 15.5427 16.4703 15.2536 16.5791 14.9395C16.7127 14.5536 16.3703 14.2129 15.9619 14.2129H13.0039ZM19.4424 14.2129C19.0342 14.2131 18.6916 14.5537 18.8252 14.9395C18.934 15.2536 19.113 15.5426 19.3525 15.7822C19.7685 16.1982 20.3336 16.4316 20.9219 16.4316C21.51 16.4316 22.0743 16.1981 22.4902 15.7822C22.7298 15.5427 22.9087 15.2536 23.0176 14.9395C23.1512 14.5536 22.8088 14.2129 22.4004 14.2129H19.4424Z" fill="#F5F5F5"/>
</svg>
